<?xml version="1.0" standalone="no"?>
<svg viewBox="0 0 200 200" width="852" height="582" xmlns="http://www.w3.org/2000/svg"><defs><linearGradient id="a" x1="50.009%" x2="55.007%" y1=".153%" y2="82.108%"><stop offset="0%" stop-color="#4F46E5" stop-opacity="0"/><stop offset="100%" stop-color="#4F46E5"/></linearGradient></defs><path fill="url(#a)" d="M49.2,-58.1C63.3,-57.4,74.2,-42.5,73,-28C71.8,-13.5,58.7,0.7,46.5,7.9C34.2,15.1,22.8,15.4,15.2,28.1C7.6,40.7,3.8,65.7,-7.6,76.2C-19.1,86.7,-38.2,82.8,-48.7,71.1C-59.1,59.4,-61,39.9,-65.3,22.2C-69.6,4.6,-76.3,-11.2,-74.2,-26.1C-72.1,-41,-61.2,-55.1,-47.3,-55.9C-33.5,-56.6,-16.7,-44.1,0.4,-44.6C17.5,-45.2,35,-58.7,49.2,-58.1Z" transform="translate(100 100)" />
</svg>
